<?xml version="1.0" encoding="UTF-8"?>
<svg xmlns="http://www.w3.org/2000/svg" version="1.1" width="100" height="100" viewBox="0 0 100 100"><rect x="0" y="0" width="100" height="100" fill="#ffffff"/><g transform="scale(4.762)"><g transform="translate(0,0)"><path fill-rule="evenodd" d="M10 0L10 1L11 1L11 0ZM12 0L12 2L13 2L13 0ZM8 2L8 3L9 3L9 2ZM10 2L10 3L11 3L11 2ZM12 3L12 4L11 4L11 5L10 5L10 4L9 4L9 6L8 6L8 8L4 8L4 9L3 9L3 8L0 8L0 11L1 11L1 12L0 12L0 13L1 13L1 12L2 12L2 11L3 11L3 13L5 13L5 11L7 11L7 12L6 12L6 13L7 13L7 12L10 12L10 13L8 13L8 17L9 17L9 16L10 16L10 15L11 15L11 14L10 14L10 13L12 13L12 12L13 12L13 13L14 13L14 14L15 14L15 13L16 13L16 12L18 12L18 14L20 14L20 12L21 12L21 11L20 11L20 12L18 12L18 11L19 11L19 10L20 10L20 9L19 9L19 8L18 8L18 9L17 9L17 10L18 10L18 11L16 11L16 9L15 9L15 8L12 8L12 9L11 9L11 6L12 6L12 7L13 7L13 6L12 6L12 5L13 5L13 3ZM9 6L9 9L8 9L8 10L7 10L7 9L6 9L6 10L7 10L7 11L10 11L10 12L11 12L11 9L10 9L10 6ZM2 9L2 10L3 10L3 9ZM12 9L12 11L13 11L13 9ZM14 9L14 10L15 10L15 9ZM18 9L18 10L19 10L19 9ZM14 11L14 12L15 12L15 11ZM12 14L12 15L13 15L13 14ZM16 14L16 15L17 15L17 14ZM14 15L14 17L13 17L13 16L12 16L12 17L10 17L10 18L11 18L11 19L10 19L10 20L9 20L9 18L8 18L8 21L10 21L10 20L11 20L11 21L12 21L12 20L13 20L13 21L16 21L16 20L17 20L17 21L19 21L19 20L18 20L18 19L19 19L19 18L20 18L20 19L21 19L21 18L20 18L20 17L21 17L21 16L20 16L20 15L18 15L18 17L17 17L17 16L16 16L16 17L15 17L15 15ZM19 16L19 17L18 17L18 18L19 18L19 17L20 17L20 16ZM12 17L12 19L13 19L13 17ZM14 17L14 18L15 18L15 17ZM16 17L16 19L17 19L17 17ZM14 19L14 20L15 20L15 19ZM20 20L20 21L21 21L21 20ZM0 0L0 7L7 7L7 0ZM1 1L1 6L6 6L6 1ZM2 2L2 5L5 5L5 2ZM14 0L14 7L21 7L21 0ZM15 1L15 6L20 6L20 1ZM16 2L16 5L19 5L19 2ZM0 14L0 21L7 21L7 14ZM1 15L1 20L6 20L6 15ZM2 16L2 19L5 19L5 16Z" fill="#000000"/></g></g></svg>
