<?xml version="1.0" encoding="UTF-8"?>
<svg xmlns="http://www.w3.org/2000/svg" version="1.1" width="100" height="100" viewBox="0 0 100 100"><rect x="0" y="0" width="100" height="100" fill="#ffffff"/><g transform="scale(4.762)"><g transform="translate(0,0)"><path fill-rule="evenodd" d="M9 0L9 1L8 1L8 2L9 2L9 3L8 3L8 4L9 4L9 3L10 3L10 2L9 2L9 1L10 1L10 0ZM12 0L12 1L11 1L11 2L12 2L12 1L13 1L13 0ZM11 3L11 4L10 4L10 5L8 5L8 7L9 7L9 6L10 6L10 8L6 8L6 9L5 9L5 8L0 8L0 10L1 10L1 12L0 12L0 13L1 13L1 12L2 12L2 13L3 13L3 11L4 11L4 9L5 9L5 10L6 10L6 11L5 11L5 12L4 12L4 13L5 13L5 12L6 12L6 13L8 13L8 15L10 15L10 16L8 16L8 21L9 21L9 18L10 18L10 20L11 20L11 21L12 21L12 20L11 20L11 19L12 19L12 18L13 18L13 19L14 19L14 18L13 18L13 16L15 16L15 18L16 18L16 19L15 19L15 20L16 20L16 21L19 21L19 20L20 20L20 19L19 19L19 16L18 16L18 15L17 15L17 16L18 16L18 18L16 18L16 16L15 16L15 15L16 15L16 14L15 14L15 13L14 13L14 12L13 12L13 13L12 13L12 12L11 12L11 11L12 11L12 10L13 10L13 11L14 11L14 10L13 10L13 9L14 9L14 8L13 8L13 4L12 4L12 3ZM11 5L11 7L12 7L12 5ZM10 8L10 9L6 9L6 10L10 10L10 9L11 9L11 10L12 10L12 8ZM15 8L15 10L16 10L16 11L15 11L15 12L16 12L16 13L17 13L17 14L18 14L18 13L19 13L19 14L20 14L20 15L21 15L21 14L20 14L20 13L19 13L19 9L20 9L20 8L19 8L19 9L18 9L18 8L17 8L17 9L18 9L18 13L17 13L17 10L16 10L16 8ZM1 9L1 10L3 10L3 9ZM20 10L20 12L21 12L21 10ZM6 11L6 12L7 12L7 11ZM8 11L8 13L9 13L9 14L10 14L10 13L11 13L11 12L10 12L10 11ZM9 12L9 13L10 13L10 12ZM11 14L11 15L12 15L12 14ZM13 14L13 15L14 15L14 14ZM10 16L10 18L12 18L12 16ZM17 19L17 20L18 20L18 19ZM13 20L13 21L14 21L14 20ZM0 0L0 7L7 7L7 0ZM1 1L1 6L6 6L6 1ZM2 2L2 5L5 5L5 2ZM14 0L14 7L21 7L21 0ZM15 1L15 6L20 6L20 1ZM16 2L16 5L19 5L19 2ZM0 14L0 21L7 21L7 14ZM1 15L1 20L6 20L6 15ZM2 16L2 19L5 19L5 16Z" fill="#000000"/></g></g></svg>
